<svg xmlns="http://www.w3.org/2000/svg" viewBox="0 0 200 200" width="200" height="200">
  <!-- Heart Shape -->
  <path d="M100,30
           C120,30, 140,50, 140,70
           C140,90, 120,110, 100,130
           C80,110, 60,90, 60,70
           C60,50, 80,30, 100,30Z" fill="url(#grad1)" />

  <!-- Brain Lines -->
  <path d="M70,70 C80,60, 120,60, 130,70
           C140,80, 140,100, 130,110
           C120,120, 80,120, 70,110
           C60,100, 60,80, 70,70" fill="none" stroke="#fff" stroke-width="4" />
  <path d="M70,85 C80,75, 120,75, 130,85
           C140,95, 140,105, 130,115
           C120,125, 80,125, 70,115
           C60,105, 60,95, 70,85" fill="none" stroke="#fff" stroke-width="4" />

  <!-- Gradient Definition -->
  <defs>
    <linearGradient id="grad1" x1="0%" y1="0%" x2="100%" y2="100%">
      <stop offset="0%" style="stop-color:#6c5ce7; stop-opacity:1" />
      <stop offset="100%" style="stop-color:#00b894; stop-opacity:1" />
    </linearGradient>
  </defs>
  
  <!-- Text -->
  <text x="50%" y="160" text-anchor="middle" font-size="24" font-family="Arial, sans-serif" fill="#2d3436">MindTrack</text>
</svg>
